<svg width="32" height="34" viewBox="0 0 32 34" fill="none" xmlns="http://www.w3.org/2000/svg">
<ellipse cx="16" cy="16.9943" rx="16" ry="16.1057" fill="#835AFD"/>
<path d="M20.9228 22.5448V21.3141C20.9228 20.6612 20.6635 20.0351 20.2018 19.5735C19.7402 19.1119 19.1141 18.8525 18.4613 18.8525H13.5382C12.8854 18.8525 12.2593 19.1119 11.7976 19.5735C11.336 20.0351 11.0767 20.6612 11.0767 21.3141V22.5448" stroke="#FEFEFE" stroke-width="1.5" stroke-linecap="round" stroke-linejoin="round"/>
<path d="M15.9999 16.3628C17.3593 16.3628 18.4614 15.2535 18.4614 13.885C18.4614 12.5166 17.3593 11.4072 15.9999 11.4072C14.6404 11.4072 13.5383 12.5166 13.5383 13.885C13.5383 15.2535 14.6404 16.3628 15.9999 16.3628Z" stroke="#FEFEFE" stroke-width="1.5" stroke-linecap="round" stroke-linejoin="round"/>
</svg>
